<svg id="Layer_1" data-name="Layer 1" xmlns="http://www.w3.org/2000/svg" viewBox="0 0 178.7 198"><defs><style>.cls-1{fill:#fa4a5c;}.cls-2{fill:#fff;}</style></defs><title>logo</title><path class="cls-1" d="M87.49,103.74A26.38,26.38,0,1,1,58.6,77.49h0c.83-.08,1.67-.13,2.51-.13s1.68,0,2.51.13H87.49" transform="translate(-10.65 -1)"/><path class="cls-1" d="M10.65,1V24.42a53.55,53.55,0,0,0,50,53.42c1.18.08,2.38.12,3.58.12s2.39,0,3.57-.12H87.49v-5.2l-.1-20.12h0v.1c0,.14,0,.27,0,.4,0-.16,0-.33,0-.5h0c0-.1,0-.2,0-.31s0-.41,0-.61,0-.48,0-.73,0-.4,0-.6-.05-.48-.07-.73L87.13,49c0-.24,0-.49-.08-.73s0-.39-.07-.58-.07-.49-.1-.74-.06-.37-.08-.56-.09-.51-.13-.76l-.09-.53c0-.27-.1-.55-.16-.82s0-.31-.09-.46c-.07-.35-.15-.7-.23-1.05,0-.07,0-.14,0-.21-.1-.43-.2-.84-.31-1.26,0-.13-.07-.25-.1-.38-.08-.29-.15-.58-.23-.86l-.15-.48c-.07-.26-.14-.51-.22-.76s-.11-.34-.16-.51l-.23-.71c-.06-.17-.13-.35-.19-.53s-.15-.45-.24-.67L84,35.81c-.09-.22-.17-.44-.25-.66l-.22-.54c-.09-.21-.17-.42-.26-.64s-.15-.36-.23-.53-.18-.43-.28-.64l-.24-.53-.29-.62L82,31.13c-.1-.21-.2-.41-.31-.62s-.17-.34-.26-.51l-.32-.61-.27-.51c-.12-.2-.23-.4-.34-.6l-.28-.5-.36-.6c-.09-.16-.19-.32-.29-.48l-.37-.6-.3-.47-.39-.6-.3-.44L77.8,24l-.29-.42L77,22.88c-.08-.11-.16-.23-.25-.34-.24-.32-.48-.64-.73-.95l0,0c-.26-.33-.52-.66-.79-1L75,20.26l-.54-.65-.33-.37-.5-.56-.36-.39c-.17-.18-.33-.36-.5-.53l-.38-.4-.49-.5-.4-.39c-.16-.17-.33-.33-.49-.49l-.41-.39-.51-.46-.42-.39-.51-.45-.43-.38c-.18-.14-.35-.29-.52-.44l-.45-.36c-.17-.15-.35-.29-.53-.43l-.45-.35-.54-.42-.46-.34-.55-.41-.47-.33-.57-.4-.46-.31-.59-.39-.46-.3L62,9l-.45-.28-.66-.39-.43-.25-.75-.42-.35-.19-1.11-.59-.13-.06-1-.5-.39-.19L56,5.82l-.47-.2-.7-.31-.5-.21-.67-.27-.53-.21-.66-.25-.54-.19-.67-.24-.55-.18L50,3.54l-.56-.17-.67-.2L48.24,3c-.23-.06-.45-.13-.68-.18L47,2.68l-.69-.17-.57-.13c-.23-.06-.46-.1-.69-.15l-.58-.12L43.75,2l-.58-.1c-.23-.05-.47-.09-.71-.12l-.58-.09-.73-.11-.57-.07c-.25,0-.51-.06-.76-.09l-.55-.06-.82-.07L38,1.21l-1-.06-.37,0h0l-.89,0h-.44l-1.37,0h0L33.81,1H10.65ZM87.43,54.61c0-.42,0-.83,0-1.24C87.42,53.78,87.43,54.19,87.43,54.61Z" transform="translate(-10.65 -1)"/><path class="cls-1" d="M112.51,103.74A26.38,26.38,0,1,0,141.4,77.49h0c-.83-.08-1.67-.13-2.51-.13s-1.68,0-2.51.13H112.51" transform="translate(-10.65 -1)"/><path class="cls-1" d="M184,1H166.19l-.06.06h0l-1.37,0h-.44l-.89,0h0l-.37,0-1,.06-.5.05-.82.07-.55.06c-.25,0-.51.05-.76.09l-.57.07-.73.11-.58.09c-.24,0-.48.07-.71.12l-.58.1-.71.14-.58.12c-.23,0-.46.09-.69.15l-.57.13-.69.17-.57.15c-.23,0-.45.12-.68.18l-.56.16-.67.2-.56.17-.67.22-.55.18-.67.24-.54.19-.66.25-.53.21-.67.27-.5.21-.7.31-.47.2-.75.35-.39.19-1,.5-.13.06-1.11.59-.35.19-.75.42-.43.25-.66.39L138,9l-.62.39-.46.3-.59.39-.46.31-.57.4-.47.33-.55.41-.46.34-.54.42-.45.35c-.18.14-.36.28-.53.43l-.45.36c-.17.15-.34.3-.52.44l-.43.38-.51.45-.42.39-.51.46L129,16c-.16.16-.33.32-.49.49l-.4.39-.49.5-.38.4c-.17.17-.33.35-.5.53l-.36.39-.5.56-.33.37-.54.65-.26.31c-.27.32-.53.65-.79,1l0,0c-.25.31-.49.63-.73.95-.09.11-.17.23-.25.34l-.49.67-.29.42-.43.62-.3.44-.39.6-.3.47-.37.6c-.1.16-.2.32-.29.48l-.36.6-.28.5c-.11.2-.22.4-.34.6l-.27.51-.32.61c-.09.17-.18.34-.26.51s-.21.41-.31.62l-.25.52-.29.62-.24.53c-.1.21-.19.43-.28.64s-.15.35-.23.53-.17.43-.26.64l-.22.54c-.08.22-.16.44-.25.66l-.19.54c-.09.22-.16.45-.24.67s-.13.36-.19.53l-.23.71c0,.17-.11.34-.16.51s-.15.5-.22.76l-.15.48c-.08.28-.15.57-.23.86,0,.13-.07.25-.1.38-.11.42-.21.83-.31,1.26,0,.07,0,.14,0,.21-.08.35-.16.7-.23,1.05,0,.15-.06.31-.09.46s-.11.55-.16.82l-.09.53c0,.25-.09.51-.13.76s0,.37-.08.56-.07.49-.1.74,0,.39-.07.58-.06.49-.08.73l-.06.59c0,.25,0,.49-.07.73s0,.4,0,.6,0,.49,0,.73,0,.41,0,.61,0,.21,0,.31h0c0,.17,0,.34,0,.5,0-.13,0-.26,0-.4v-.1h0l-.1,20.12v5.2h19.72Q134,78,135.8,78c1.2,0,2.4,0,3.58-.12a53.55,53.55,0,0,0,50-53.42V1ZM112.58,53.37c0,.41,0,.82,0,1.24C112.57,54.19,112.58,53.78,112.58,53.37Z" transform="translate(-10.65 -1)"/><circle class="cls-2" cx="89.21" cy="79.43" r="6.9"/><path class="cls-2" d="M57.08,164v34.17H52.15V180.82H33.92v17.37H29V164h4.94v15.61H52.15V164Z" transform="translate(-10.65 -1)"/><path class="cls-2" d="M68,194.59a2.63,2.63,0,0,1,3.7,0,2.33,2.33,0,0,1,.76,1.8,2.44,2.44,0,0,1-.76,1.85,2.63,2.63,0,0,1-3.7,0,2.68,2.68,0,0,1-.76-1.85A2.48,2.48,0,0,1,68,194.59Z" transform="translate(-10.65 -1)"/><path class="cls-2" d="M111.06,164v34.17h-4.94V180.82H87.89v17.37H83V164h4.93v15.61h18.23V164Z" transform="translate(-10.65 -1)"/><path class="cls-2" d="M139.21,185.66H126.63l-4.8,12.53H120L134.18,164h1l14.53,34.17h-5.37l-2.56-6.26Zm-.43-1.14-6-14.33L127,184.52Z" transform="translate(-10.65 -1)"/><path class="cls-2" d="M170.16,164V185.9a35.27,35.27,0,0,1-.33,5.27,7.42,7.42,0,0,1-1.57,3.46,8,8,0,0,1-3.27,2.66,11.68,11.68,0,0,1-4.8.9,6.21,6.21,0,0,1-3.56-.95l1-.71a7.14,7.14,0,0,0,2.47.76,5.54,5.54,0,0,0,3.84-1.47,5.62,5.62,0,0,0,1.9-3.42,38.25,38.25,0,0,0,.43-6.5V164Z" transform="translate(-10.65 -1)"/></svg>