<?xml version="1.0" encoding="utf-8"?>
<!-- Generator: Adobe Illustrator 24.0.3, SVG Export Plug-In . SVG Version: 6.00 Build 0)  -->
<svg version="1.1" id="Layer_1" xmlns="http://www.w3.org/2000/svg" xmlns:xlink="http://www.w3.org/1999/xlink" x="0px" y="0px"
	 viewBox="0 0 244 244" style="enable-background:new 0 0 244 244;" xml:space="preserve">
<style type="text/css">
	.st0{fill:#FA4A5C;}
	.st1{fill:#141E20;}
	.st2{fill:#15212F;}
</style>
<title>logo</title>
<g>
	<g>
		<path class="st0" d="M2465.7,142.6c0,21-17,38-38,38s-38-17-38-38c0-19.8,15.1-36,34.4-37.8l0,0l0,0c1.2-0.1,2.4-0.2,3.6-0.2
			c1.2,0,2.4,0.1,3.6,0.2h34.4"/>
		<path class="st0" d="M2355.1-5.3v7.7v26c0,40.8,31.8,74.3,71.9,76.9c1.7,0.1,3.4,0.2,5.1,0.2s3.4-0.1,5.1-0.2h20.7h7.7v-7.5
			l-0.2-29l0,0v0.1c0,0.2,0,0.4,0,0.6c0-0.2,0-0.5,0-0.7l0,0c0-0.2,0-0.3,0-0.5c0-0.3,0-0.6,0-0.9s0-0.7-0.1-1c0-0.3,0-0.6-0.1-0.9
			c0-0.3-0.1-0.7-0.1-1s-0.1-0.6-0.1-0.9c0-0.4-0.1-0.7-0.1-1.1c0-0.3-0.1-0.6-0.1-0.8c0-0.4-0.1-0.7-0.1-1.1c0-0.3-0.1-0.5-0.1-0.8
			c-0.1-0.4-0.1-0.7-0.2-1.1c0-0.3-0.1-0.5-0.1-0.8c-0.1-0.4-0.1-0.8-0.2-1.2c0-0.2-0.1-0.4-0.1-0.7c-0.1-0.5-0.2-1-0.3-1.5
			c0-0.1,0-0.2-0.1-0.3c-0.1-0.6-0.3-1.2-0.4-1.8c0-0.2-0.1-0.4-0.1-0.5c-0.1-0.4-0.2-0.8-0.3-1.2c-0.1-0.2-0.1-0.5-0.2-0.7
			c-0.1-0.4-0.2-0.7-0.3-1.1c-0.1-0.2-0.2-0.5-0.2-0.7c-0.1-0.3-0.2-0.7-0.3-1s-0.2-0.5-0.3-0.8s-0.2-0.7-0.3-1s-0.2-0.5-0.3-0.8
			s-0.2-0.6-0.4-0.9c-0.1-0.3-0.2-0.5-0.3-0.8s-0.2-0.6-0.4-0.9c-0.1-0.3-0.2-0.5-0.3-0.8s-0.3-0.6-0.4-0.9
			c-0.1-0.3-0.2-0.5-0.3-0.8s-0.3-0.6-0.4-0.9c-0.1-0.3-0.2-0.5-0.4-0.8c-0.1-0.3-0.3-0.6-0.4-0.9c-0.1-0.2-0.3-0.5-0.4-0.7
			c-0.2-0.3-0.3-0.6-0.5-0.9c-0.1-0.2-0.3-0.5-0.4-0.7c-0.2-0.3-0.3-0.6-0.5-0.9c-0.1-0.2-0.3-0.5-0.4-0.7c-0.2-0.3-0.3-0.6-0.5-0.9
			c-0.1-0.2-0.3-0.5-0.4-0.7c-0.2-0.3-0.4-0.6-0.5-0.9c-0.1-0.2-0.3-0.5-0.4-0.7c-0.2-0.3-0.4-0.6-0.6-0.9c-0.1-0.2-0.3-0.4-0.4-0.6
			c-0.2-0.3-0.4-0.6-0.6-0.9c-0.1-0.2-0.3-0.4-0.4-0.6c-0.2-0.3-0.5-0.6-0.7-1c-0.1-0.2-0.2-0.3-0.4-0.5c-0.3-0.5-0.7-0.9-1.1-1.4
			c0,0,0,0,0-0.1c-0.4-0.5-0.7-0.9-1.1-1.4c-0.1-0.1-0.2-0.3-0.4-0.4c-0.3-0.3-0.5-0.6-0.8-0.9c-0.2-0.2-0.3-0.4-0.5-0.5
			c-0.2-0.3-0.5-0.5-0.7-0.8c-0.2-0.2-0.3-0.4-0.5-0.6c-0.2-0.3-0.5-0.5-0.7-0.8c-0.2-0.2-0.4-0.4-0.5-0.6c-0.2-0.2-0.5-0.5-0.7-0.7
			s-0.4-0.4-0.6-0.6c-0.2-0.2-0.5-0.5-0.7-0.7s-0.4-0.4-0.6-0.6c-0.2-0.2-0.5-0.4-0.7-0.7c-0.2-0.2-0.4-0.4-0.6-0.6
			c-0.2-0.2-0.5-0.4-0.7-0.6c-0.2-0.2-0.4-0.4-0.6-0.5c-0.2-0.2-0.5-0.4-0.7-0.6c-0.2-0.2-0.4-0.4-0.6-0.5c-0.3-0.2-0.5-0.4-0.8-0.6
			c-0.2-0.2-0.4-0.3-0.6-0.5c-0.3-0.2-0.5-0.4-0.8-0.6c-0.2-0.2-0.4-0.3-0.7-0.5s-0.5-0.4-0.8-0.6c-0.2-0.2-0.4-0.3-0.7-0.5
			s-0.5-0.4-0.8-0.6c-0.2-0.2-0.4-0.3-0.7-0.5s-0.6-0.4-0.8-0.6c-0.2-0.1-0.4-0.3-0.7-0.4c-0.3-0.2-0.6-0.4-0.9-0.6
			c-0.2-0.1-0.4-0.3-0.6-0.4c-0.3-0.2-0.6-0.4-1-0.6c-0.2-0.1-0.4-0.2-0.6-0.4c-0.4-0.2-0.7-0.4-1.1-0.6c-0.2-0.1-0.3-0.2-0.5-0.3
			c-0.5-0.3-1.1-0.6-1.6-0.8c-0.1,0-0.1-0.1-0.2-0.1c-0.5-0.2-1-0.5-1.4-0.7c-0.2-0.1-0.4-0.2-0.6-0.3c-0.4-0.2-0.7-0.3-1.1-0.5
			c-0.2-0.1-0.4-0.2-0.7-0.3s-0.7-0.3-1-0.4c-0.2-0.1-0.5-0.2-0.7-0.3c-0.3-0.1-0.6-0.3-1-0.4c-0.2-0.1-0.5-0.2-0.8-0.3
			s-0.6-0.2-1-0.4c-0.3-0.1-0.5-0.2-0.8-0.3s-0.6-0.2-1-0.3c-0.3-0.1-0.5-0.2-0.8-0.3s-0.6-0.2-1-0.3c-0.3-0.1-0.5-0.2-0.8-0.2
			c-0.3-0.1-0.6-0.2-1-0.3c-0.3-0.1-0.5-0.2-0.8-0.2c-0.3-0.1-0.6-0.2-1-0.3c-0.3-0.1-0.6-0.1-0.8-0.2c-0.3-0.1-0.7-0.2-1-0.2
			c-0.3-0.1-0.6-0.1-0.8-0.2c-0.3-0.1-0.7-0.1-1-0.2s-0.6-0.1-0.8-0.2c-0.3-0.1-0.7-0.1-1-0.2s-0.6-0.1-0.8-0.2
			c-0.3-0.1-0.7-0.1-1-0.2c-0.3,0-0.6-0.1-0.8-0.1c-0.4-0.1-0.7-0.1-1.1-0.1c-0.3,0-0.5-0.1-0.8-0.1c-0.4,0-0.7-0.1-1.1-0.1
			c-0.3,0-0.5-0.1-0.8-0.1c-0.4,0-0.8-0.1-1.2-0.1c-0.2,0-0.5,0-0.7-0.1c-0.5,0-0.9-0.1-1.4-0.1c-0.2,0-0.4,0-0.5,0l0,0
			c-0.4,0-0.9,0-1.3,0c-0.2,0-0.4,0-0.6,0c-0.7,0-1.3,0-2,0l0,0l-0.1-0.1h-25.6h-8L2355.1-5.3L2355.1-5.3z M2465.6,71.9
			c0-0.6,0-1.2,0-1.8C2465.6,70.7,2465.6,71.3,2465.6,71.9z"/>
		<path class="st0" d="M2501.7,142.6c0,21,17,38,38,38s38-17,38-38c0-19.8-15.1-36-34.4-37.8l0,0l0,0c-1.2-0.1-2.4-0.2-3.6-0.2
			c-1.2,0-2.4,0.1-3.6,0.2h-34.4"/>
		<path class="st0" d="M2604.6-5.3H2579l-0.1,0.1l0,0c-0.7,0-1.3,0-2,0c-0.2,0-0.4,0-0.6,0c-0.4,0-0.9,0-1.3,0l0,0
			c-0.2,0-0.4,0-0.5,0c-0.5,0-0.9,0.1-1.4,0.1c-0.2,0-0.5,0-0.7,0.1c-0.4,0-0.8,0.1-1.2,0.1c-0.3,0-0.5,0.1-0.8,0.1
			c-0.4,0-0.7,0.1-1.1,0.1c-0.3,0-0.5,0.1-0.8,0.1c-0.4,0-0.7,0.1-1.1,0.1c-0.3,0-0.6,0.1-0.8,0.1c-0.3,0.1-0.7,0.1-1,0.2
			c-0.3,0-0.6,0.1-0.8,0.2c-0.3,0.1-0.7,0.1-1,0.2c-0.3,0.1-0.6,0.1-0.8,0.2c-0.3,0.1-0.7,0.1-1,0.2c-0.3,0.1-0.6,0.1-0.8,0.2
			c-0.3,0.1-0.7,0.2-1,0.2c-0.3,0.1-0.6,0.1-0.8,0.2c-0.3,0.1-0.6,0.2-1,0.3c-0.3,0.1-0.5,0.2-0.8,0.2c-0.3,0.1-0.6,0.2-1,0.3
			c-0.3,0.1-0.5,0.2-0.8,0.2c-0.3,0.1-0.6,0.2-1,0.3c-0.3,0.1-0.5,0.2-0.8,0.3c-0.3,0.1-0.6,0.2-1,0.3c-0.3,0.1-0.5,0.2-0.8,0.3
			s-0.6,0.2-1,0.4c-0.3,0.1-0.5,0.2-0.8,0.3s-0.6,0.3-1,0.4c-0.2,0.1-0.5,0.2-0.7,0.3c-0.3,0.1-0.7,0.3-1,0.4
			c-0.2,0.1-0.4,0.2-0.7,0.3c-0.4,0.2-0.7,0.3-1.1,0.5c-0.2,0.1-0.4,0.2-0.6,0.3c-0.5,0.2-1,0.5-1.4,0.7c-0.1,0-0.1,0.1-0.2,0.1
			c-0.5,0.3-1.1,0.6-1.6,0.8c-0.2,0.1-0.3,0.2-0.5,0.3c-0.4,0.2-0.7,0.4-1.1,0.6c-0.2,0.1-0.4,0.2-0.6,0.4c-0.3,0.2-0.6,0.4-1,0.6
			c-0.2,0.1-0.4,0.3-0.6,0.4c-0.3,0.2-0.6,0.4-0.9,0.6c-0.2,0.1-0.4,0.3-0.7,0.4c-0.3,0.2-0.6,0.4-0.8,0.6s-0.4,0.3-0.7,0.5
			c-0.3,0.2-0.5,0.4-0.8,0.6c-0.2,0.2-0.4,0.3-0.7,0.5s-0.5,0.4-0.8,0.6c-0.2,0.2-0.4,0.3-0.7,0.5s-0.5,0.4-0.8,0.6
			c-0.2,0.2-0.4,0.3-0.6,0.5c-0.3,0.2-0.5,0.4-0.8,0.6c-0.2,0.2-0.4,0.3-0.6,0.5c-0.3,0.2-0.5,0.4-0.7,0.6c-0.2,0.2-0.4,0.4-0.6,0.5
			c-0.2,0.2-0.5,0.4-0.7,0.6c-0.2,0.2-0.4,0.4-0.6,0.6c-0.2,0.2-0.5,0.4-0.7,0.7c-0.2,0.2-0.4,0.4-0.6,0.6c-0.2,0.2-0.5,0.5-0.7,0.7
			s-0.4,0.4-0.6,0.6c-0.2,0.2-0.5,0.5-0.7,0.7s-0.4,0.4-0.5,0.6c-0.2,0.3-0.5,0.5-0.7,0.8c-0.2,0.2-0.3,0.4-0.5,0.6
			c-0.2,0.3-0.5,0.5-0.7,0.8c-0.2,0.2-0.3,0.4-0.5,0.5c-0.3,0.3-0.5,0.6-0.8,0.9c-0.1,0.1-0.3,0.3-0.4,0.4c-0.4,0.5-0.8,0.9-1.1,1.4
			c0,0,0,0,0,0.1c-0.4,0.5-0.7,0.9-1.1,1.4c-0.1,0.2-0.2,0.3-0.4,0.5c-0.2,0.3-0.5,0.6-0.7,1c-0.1,0.2-0.3,0.4-0.4,0.6
			c-0.2,0.3-0.4,0.6-0.6,0.9c-0.1,0.2-0.3,0.4-0.4,0.6c-0.2,0.3-0.4,0.6-0.6,0.9c-0.1,0.2-0.3,0.4-0.4,0.7c-0.2,0.3-0.4,0.6-0.5,0.9
			c-0.1,0.2-0.3,0.5-0.4,0.7c-0.2,0.3-0.3,0.6-0.5,0.9c-0.1,0.2-0.3,0.5-0.4,0.7c-0.2,0.3-0.3,0.6-0.5,0.9c-0.1,0.2-0.3,0.5-0.4,0.7
			c-0.2,0.3-0.3,0.6-0.5,0.9c-0.1,0.2-0.3,0.5-0.4,0.7c-0.1,0.3-0.3,0.6-0.4,0.9c-0.1,0.3-0.2,0.5-0.4,0.8c-0.1,0.3-0.3,0.6-0.4,0.9
			c-0.1,0.3-0.2,0.5-0.3,0.8s-0.3,0.6-0.4,0.9c-0.1,0.3-0.2,0.5-0.3,0.8s-0.3,0.6-0.4,0.9c-0.1,0.3-0.2,0.5-0.3,0.8
			s-0.2,0.6-0.4,0.9c-0.1,0.3-0.2,0.5-0.3,0.8s-0.2,0.7-0.3,1s-0.2,0.5-0.3,0.8s-0.2,0.7-0.3,1c-0.1,0.2-0.2,0.5-0.2,0.7
			c-0.1,0.4-0.2,0.7-0.3,1.1c-0.1,0.2-0.1,0.5-0.2,0.7c-0.1,0.4-0.2,0.8-0.3,1.2c0,0.2-0.1,0.4-0.1,0.5c-0.2,0.6-0.3,1.2-0.4,1.8
			c0,0.1,0,0.2-0.1,0.3c-0.1,0.5-0.2,1-0.3,1.5c0,0.2-0.1,0.4-0.1,0.7c-0.1,0.4-0.2,0.8-0.2,1.2c0,0.3-0.1,0.5-0.1,0.8
			c-0.1,0.4-0.1,0.7-0.2,1.1c0,0.3-0.1,0.5-0.1,0.8c-0.1,0.4-0.1,0.7-0.1,1.1c0,0.3-0.1,0.6-0.1,0.8c0,0.3-0.1,0.7-0.1,1.1
			c0,0.3-0.1,0.6-0.1,0.9s-0.1,0.7-0.1,1s0,0.6-0.1,0.9c0,0.3,0,0.7-0.1,1c0,0.3,0,0.6,0,0.9c0,0.2,0,0.3,0,0.5l0,0
			c0,0.2,0,0.5,0,0.7c0-0.2,0-0.4,0-0.6v-0.1l0,0l-0.2,29v7.5h7.7h20.7c1.7,0.1,3.4,0.2,5.1,0.2s3.4-0.1,5.1-0.2
			c40.2-2.6,71.9-36.1,71.9-76.9v-26v-7.7h-8L2604.6-5.3L2604.6-5.3z M2501.8,70.1c0,0.6,0,1.2,0,1.8
			C2501.8,71.3,2501.8,70.7,2501.8,70.1z"/>
		<circle class="st1" cx="2483.5" cy="109" r="9.9"/>
	</g>
	<text transform="matrix(1 0 0 1 2421.468 239.133)" class="st1" style="font-family:'Audrey-Normal'; font-size:38.5942px;">H.HAJ</text>
</g>
<g>
	<path class="st0" d="M107,126.6c0,17.4-14.1,31.4-31.4,31.5c-17.4,0-31.4-14.1-31.5-31.4c0-16.2,12.3-29.8,28.5-31.3l0,0
		c1-0.1,2-0.2,3-0.2s2,0,3,0.2h28.5"/>
	<path class="st0" d="M15.4,4.1V32c0,33.6,26.1,61.4,59.6,63.7c1.4,0.1,2.8,0.1,4.3,0.1c1.4,0,2.8,0,4.3-0.1h23.5v-6.2l-0.1-24l0,0
		v0.1c0,0.2,0,0.3,0,0.5c0-0.2,0-0.4,0-0.6l0,0c0-0.1,0-0.2,0-0.4s0-0.5,0-0.7s0-0.6,0-0.9s0-0.5,0-0.7c0-0.2-0.1-0.6-0.1-0.9
		l-0.2-0.6c0-0.3,0-0.6-0.1-0.9c-0.1-0.3,0-0.5-0.1-0.7c-0.1-0.2-0.1-0.6-0.1-0.9s-0.1-0.4-0.1-0.7c0-0.3-0.1-0.6-0.2-0.9l-0.1-0.6
		c0-0.3-0.1-0.7-0.2-1c-0.1-0.3,0-0.4-0.1-0.5c-0.1-0.4-0.2-0.8-0.3-1.3c0-0.1,0-0.2,0-0.3c-0.1-0.5-0.2-1-0.4-1.5
		c0-0.2-0.1-0.3-0.1-0.5c-0.1-0.3-0.2-0.7-0.3-1l-0.2-0.6c-0.1-0.3-0.2-0.6-0.3-0.9c-0.1-0.3-0.1-0.4-0.2-0.6l-0.3-0.8
		c-0.1-0.2-0.2-0.4-0.2-0.6c-0.1-0.2-0.2-0.5-0.3-0.8l-0.3-0.7c-0.1-0.3-0.2-0.5-0.3-0.8l-0.3-0.6c-0.1-0.3-0.2-0.5-0.3-0.8
		c-0.1-0.3-0.2-0.4-0.3-0.6c-0.1-0.2-0.2-0.5-0.3-0.8l-0.3-0.6l-0.3-0.7l-0.3-0.6c-0.1-0.3-0.2-0.5-0.4-0.7
		c-0.1-0.3-0.2-0.4-0.3-0.6L99.3,38L99,37.4c-0.1-0.2-0.3-0.5-0.4-0.7l-0.3-0.6l-0.4-0.8c-0.1-0.2-0.2-0.4-0.3-0.6L97.2,34l-0.4-0.6
		l-0.5-0.7l-0.4-0.5l-0.5-0.7l-0.3-0.5l-0.6-0.8c-0.1-0.1-0.2-0.3-0.3-0.4c-0.3-0.4-0.6-0.8-0.9-1.1l0,0c-0.3-0.4-0.6-0.8-0.9-1.2
		l-0.3-0.4l-0.6-0.8l-0.4-0.4l-0.6-0.7l-0.4-0.5c-0.2-0.2-0.4-0.4-0.6-0.6L89,23.6L88.4,23l-0.5-0.5c-0.2-0.2-0.4-0.4-0.6-0.6
		l-0.5-0.5l-0.6-0.5l-0.5-0.5l-0.6-0.5l-0.5-0.5c-0.2-0.2-0.4-0.3-0.6-0.5l-0.5-0.4c-0.2-0.2-0.4-0.3-0.6-0.5l-0.5-0.4l-0.8-0.5
		l-0.5-0.4l-0.7-0.5l-0.5-0.4l-0.7-0.5l-0.5-0.4l-0.8-0.4l-0.5-0.4l-0.8-0.5l-0.5-0.3l-0.8-0.5l-0.5-0.3L73.9,12l-0.4-0.2l-1.4-0.7
		L71.9,11l-1.2-0.6l-0.5-0.2l-0.9-0.4l-0.4-0.2l-0.8-0.4l-0.6-0.3l-0.8-0.3l-0.6-0.3l-0.9-0.2l-0.6-0.2l-0.8-0.3l-0.7-0.2l-0.8-0.3
		l-0.7-0.2l-0.8-0.2l-0.6-0.2c-0.3-0.1-0.5-0.2-0.8-0.2l-0.7-0.2l-0.8-0.2l-0.7-0.2c-0.3-0.1-0.5-0.1-0.8-0.2l-0.7-0.1l-0.9-0.1
		l-0.7-0.1c-0.2-0.1-0.5-0.1-0.8-0.2l-0.7-0.1l-0.9-0.1L51,4.7c-0.3,0-0.6-0.1-0.9-0.1l-0.7-0.1l-1-0.1l-0.5-0.1l-1.2-0.1h-0.4l0,0
		h-1.1h-0.5h-1.6l0,0L43,4.1H15.4z M106.9,68c0-0.5,0-1,0-1.5C106.9,67,106.9,67.5,106.9,68z"/>
	<path class="st0" d="M136.8,126.6c0,17.4,14.1,31.4,31.4,31.5c17.4,0,31.4-14.1,31.5-31.4c0-16.2-12.3-29.8-28.5-31.3l0,0
		c-1-0.1-2-0.2-3-0.2s-2,0-3,0.2h-28.5"/>
	<path class="st0" d="M222,4.1h-21.2l-0.1,0.1l0,0h-1.6h-0.5h-1.1l0,0h-0.4h-1.2l-0.6,0.1l-1,0.1l-0.7,0.1c-0.3,0-0.6,0.1-0.9,0.1
		L192,4.7l-0.9,0.1l-0.7,0.1c-0.3,0-0.6,0.1-0.8,0.1l-0.7,0.1l-0.8,0.2l-0.7,0.1c-0.3,0-0.5,0.1-0.8,0.2l-0.7,0.2L185.1,6l-0.7,0.2
		c-0.3,0-0.5,0.1-0.8,0.2l-0.7,0.2l-0.8,0.2L181.4,7l-0.8,0.3l-0.7,0.2l-0.8,0.3L178.5,8l-0.8,0.3l-0.6,0.3l-0.8,0.3l-0.6,0.2
		l-0.8,0.4l-0.6,0.2l-0.9,0.4l-0.5,0.2l-1.2,0.6l-0.2,0.1l-1.3,0.7l-0.4,0.2l-0.9,0.5l-0.5,0.3l-0.8,0.5l-0.5,0.4l-0.7,0.5l-0.5,0.4
		l-0.7,0.5l-0.5,0.4l-0.7,0.5l-0.6,0.4l-0.7,0.5l-0.5,0.4l-0.6,0.5l-0.5,0.4c-0.2,0.2-0.4,0.3-0.6,0.5l-0.5,0.4
		c-0.2,0.2-0.4,0.4-0.6,0.5l-0.5,0.5l-0.6,0.5l-0.5,0.5l-0.6,0.5l-0.5,0.5c-0.2,0.2-0.4,0.4-0.6,0.6l-0.5,0.5l-0.6,0.6l-0.5,0.5
		c-0.2,0.2-0.4,0.4-0.6,0.6l-0.4,0.5l-0.6,0.7l-0.4,0.4l-0.6,0.8l-0.3,0.4c-0.3,0.4-0.6,0.8-0.9,1.2l0,0c-0.3,0.4-0.6,0.8-0.9,1.1
		c-0.1,0.1-0.2,0.3-0.3,0.4l-0.6,0.8l-0.3,0.5l-0.5,0.7l-0.4,0.5l-0.5,0.7l-0.4,0.6l-0.4,0.7c-0.1,0.2-0.2,0.4-0.3,0.6l-0.4,0.7
		l-0.3,0.6c-0.1,0.2-0.3,0.5-0.4,0.7l-0.3,0.6l-0.4,0.7c-0.1,0.2-0.2,0.4-0.3,0.6s-0.3,0.5-0.4,0.7l-0.3,0.6l-0.3,0.7l-0.3,0.6
		c-0.1,0.3-0.2,0.5-0.3,0.8c-0.1,0.3-0.2,0.4-0.3,0.6s-0.2,0.5-0.3,0.8l-0.3,0.6c-0.1,0.3-0.2,0.5-0.3,0.8L141,46
		c-0.1,0.3-0.2,0.5-0.3,0.8c-0.1,0.3-0.2,0.4-0.2,0.6l-0.3,0.8c0,0.2-0.1,0.4-0.2,0.6c-0.1,0.2-0.2,0.6-0.3,0.9l-0.2,0.6
		c-0.1,0.3-0.2,0.7-0.3,1c0,0.2-0.1,0.3-0.1,0.5c-0.1,0.5-0.3,1-0.4,1.5c0,0.1,0,0.2,0,0.3c-0.1,0.4-0.2,0.8-0.3,1.3
		c0,0.2-0.1,0.4-0.1,0.5c0,0.2-0.1,0.7-0.2,1L138,57c0,0.3-0.1,0.6-0.2,0.9c0,0.3,0,0.4-0.1,0.7c-0.1,0.2-0.1,0.6-0.1,0.9
		s0,0.5-0.1,0.7c-0.1,0.2-0.1,0.6-0.1,0.9l-0.1,0.7c0,0.3,0,0.6-0.1,0.9s0,0.5,0,0.7c0,0.2,0,0.6,0,0.9s0,0.5,0,0.7s0,0.3,0,0.4l0,0
		c0,0.2,0,0.4,0,0.6c0-0.2,0-0.3,0-0.5v-0.1l0,0l-0.1,24v6.2h23.5c1.3,0.1,2.6,0.2,4.1,0.2c1.4,0,2.9,0,4.3-0.1
		c33.5-2.2,59.6-30.1,59.6-63.7v-28H222z M136.9,66.5c0,0.5,0,1,0,1.5C136.9,67.5,136.9,67,136.9,66.5z"/>
	<circle class="st2" cx="121.7" cy="98.8" r="8.2"/>
	<path class="st2" d="M70.7,198.4v40.7h-5.9v-20.7H43.1v20.7h-5.9v-40.8h5.9v18.6h21.7v-18.6h5.9V198.4z"/>
	<path class="st0" d="M83.7,234.8c1.2-1.2,3.2-1.2,4.4,0c0.6,0.5,0.9,1.3,0.9,2.1s-0.3,1.6-0.9,2.2c-1.2,1.2-3.2,1.2-4.4,0
		c-0.6-0.6-0.9-1.4-0.9-2.2C82.8,236.2,83.2,235.4,83.7,234.8z"/>
	<path class="st2" d="M135.1,198.4v40.7h-5.9v-20.7h-21.7v20.7h-5.8v-40.8h5.9v18.6h21.7v-18.6h5.8V198.4z"/>
	<path class="st2" d="M168.6,224.2h-15l-5.7,14.9h-2.2l16.9-40.8h1.2l17.3,40.7h-6.4l-3.1-7.5L168.6,224.2z M168.1,222.8l-7.2-17.1
		l-6.9,17.1H168.1z"/>
	<path class="st2" d="M205.5,198.4v26.1c0,2.1-0.1,4.2-0.4,6.3c-0.3,1.5-0.9,2.9-1.9,4.1c-1,1.4-2.3,2.5-3.9,3.2
		c-1.8,0.8-3.8,1.1-5.7,1.1c-1.5,0.1-3-0.3-4.2-1.1l1.2-0.8c0.9,0.5,1.9,0.8,2.9,0.9c1.7,0,3.3-0.6,4.6-1.8c1.2-1,2-2.5,2.3-4.1
		c0.4-2.6,0.6-5.2,0.5-7.7v-26.1L205.5,198.4L205.5,198.4z"/>
</g>
</svg>
