<?xml version="1.0" encoding="utf-8"?>
<!-- Generator: Adobe Illustrator 24.0.3, SVG Export Plug-In . SVG Version: 6.00 Build 0)  -->
<svg version="1.1" id="Layer_1" xmlns="http://www.w3.org/2000/svg" xmlns:xlink="http://www.w3.org/1999/xlink" x="0px" y="0px"
	 viewBox="0 0 244 244" style="enable-background:new 0 0 244 244;" xml:space="preserve">
<style type="text/css">
	.st0{fill:#FA4A5C;}
	.st1{fill:#FFFFFF;}
</style>
<title>logo</title>
<g>
	<path class="st0" d="M107.1,126.5c0,17.4-14.1,31.4-31.4,31.5c-17.4,0-31.4-14.1-31.5-31.4c0-16.2,12.3-29.8,28.5-31.3l0,0
		c1-0.1,2-0.2,3-0.2c1,0,2,0,3,0.2h28.5"/>
	<path class="st0" d="M15.5,4v27.9c0,33.6,26.1,61.4,59.6,63.7c1.4,0.1,2.8,0.1,4.3,0.1c1.4,0,2.8,0,4.3-0.1h23.5v-6.2l-0.1-24l0,0
		v0.1c0,0.2,0,0.3,0,0.5c0-0.2,0-0.4,0-0.6l0,0c0-0.1,0-0.2,0-0.4s0-0.5,0-0.7c0-0.2,0-0.6,0-0.9c0-0.3,0-0.5,0-0.7
		s-0.1-0.6-0.1-0.9l-0.2-0.6c0-0.3,0-0.6-0.1-0.9c-0.1-0.3,0-0.5-0.1-0.7s-0.1-0.6-0.1-0.9c0-0.3-0.1-0.4-0.1-0.7s-0.1-0.6-0.2-0.9
		l-0.1-0.6c0-0.3-0.1-0.7-0.2-1c-0.1-0.3,0-0.4-0.1-0.5c-0.1-0.4-0.2-0.8-0.3-1.3c0-0.1,0-0.2,0-0.3c-0.1-0.5-0.2-1-0.4-1.5
		c0-0.2-0.1-0.3-0.1-0.5c-0.1-0.3-0.2-0.7-0.3-1l-0.2-0.6c-0.1-0.3-0.2-0.6-0.3-0.9c-0.1-0.3-0.1-0.4-0.2-0.6l-0.3-0.8
		c-0.1-0.2-0.2-0.4-0.2-0.6c-0.1-0.2-0.2-0.5-0.3-0.8l-0.3-0.7c-0.1-0.3-0.2-0.5-0.3-0.8l-0.3-0.6c-0.1-0.3-0.2-0.5-0.3-0.8
		s-0.2-0.4-0.3-0.6c-0.1-0.2-0.2-0.5-0.3-0.8l-0.3-0.6l-0.3-0.7l-0.3-0.6c-0.1-0.3-0.2-0.5-0.4-0.7c-0.1-0.3-0.2-0.4-0.3-0.6
		l-0.4-0.7l-0.3-0.6c-0.1-0.2-0.3-0.5-0.4-0.7l-0.3-0.6L98,35.2c-0.1-0.2-0.2-0.4-0.3-0.6l-0.4-0.7l-0.4-0.6l-0.5-0.7L96,32.1
		l-0.5-0.7l-0.3-0.5l-0.6-0.8c-0.1-0.1-0.2-0.3-0.3-0.4c-0.3-0.4-0.6-0.8-0.9-1.1l0,0c-0.3-0.4-0.6-0.8-0.9-1.2L92.2,27l-0.6-0.8
		l-0.4-0.4l-0.6-0.7l-0.4-0.5c-0.2-0.2-0.4-0.4-0.6-0.6l-0.5-0.5l-0.6-0.6L88,22.4c-0.2-0.2-0.4-0.4-0.6-0.6l-0.5-0.5l-0.6-0.5
		l-0.5-0.5l-0.6-0.5l-0.5-0.5c-0.2-0.2-0.4-0.3-0.6-0.5l-0.5-0.4c-0.2-0.2-0.4-0.3-0.6-0.5l-0.5-0.4L81.7,17l-0.5-0.4l-0.7-0.5
		L80,15.7l-0.7-0.5l-0.5-0.4L78,14.4L77.5,14l-0.8-0.5l-0.5-0.3l-0.8-0.5l-0.5-0.3L74,11.9l-0.4-0.2L72.2,11l-0.2-0.1l-1.2-0.6
		l-0.5-0.2l-0.9-0.4L69,9.5l-0.8-0.4l-0.6-0.3l-0.8-0.3l-0.6-0.3L65.3,8l-0.6-0.2l-0.8-0.3l-0.7-0.2L62.4,7l-0.7-0.2l-0.8-0.2
		l-0.6-0.2c-0.3-0.1-0.5-0.2-0.8-0.2L58.8,6L58,5.8l-0.7-0.2c-0.3-0.1-0.5-0.1-0.8-0.2l-0.7-0.1l-0.9-0.1l-0.7-0.1
		C54,5,53.7,5,53.4,4.9l-0.7-0.1l-0.9-0.1l-0.7-0.1c-0.3,0-0.6-0.1-0.9-0.1l-0.7-0.1l-1-0.1l-0.5-0.1l-1.2-0.1h-0.4l0,0h-1.1h-0.5
		h-1.6l0,0L43.1,4H15.5z M107,67.9c0-0.5,0-1,0-1.5C107,66.9,107,67.4,107,67.9z"/>
	<path class="st0" d="M136.9,126.5c0,17.4,14.1,31.4,31.4,31.5c17.4,0,31.4-14.1,31.5-31.4c0-16.2-12.3-29.8-28.5-31.3l0,0
		c-1-0.1-2-0.2-3-0.2s-2,0-3,0.2h-28.5"/>
	<path class="st0" d="M222.1,4h-21.2l-0.1,0.1l0,0h-1.6h-0.5h-1.1l0,0h-0.4L196,4.1l-0.6,0.1l-1,0.1l-0.7,0.1
		c-0.3,0-0.6,0.1-0.9,0.1l-0.7,0.1l-0.9,0.1l-0.7,0.1c-0.3,0-0.6,0.1-0.8,0.1L189,5l-0.8,0.2l-0.7,0.1c-0.3,0-0.5,0.1-0.8,0.2
		L186,5.7l-0.8,0.2l-0.7,0.2c-0.3,0-0.5,0.1-0.8,0.2L183,6.5l-0.8,0.2l-0.7,0.2l-0.8,0.3l-0.7,0.2l-0.8,0.3l-0.6,0.2l-0.8,0.3
		l-0.6,0.3l-0.8,0.3L175.8,9L175,9.4l-0.6,0.2l-0.9,0.4l-0.5,0.2l-1.2,0.6l-0.2,0.1l-1.3,0.7l-0.4,0.2l-0.9,0.5l-0.5,0.3l-0.8,0.5
		l-0.5,0.4l-0.7,0.5l-0.5,0.4l-0.7,0.5l-0.5,0.4l-0.7,0.5l-0.6,0.4l-0.7,0.5l-0.5,0.4l-0.6,0.5l-0.5,0.4c-0.2,0.2-0.4,0.3-0.6,0.5
		l-0.5,0.4c-0.2,0.2-0.4,0.4-0.6,0.5l-0.5,0.5l-0.6,0.5l-0.5,0.5l-0.6,0.5l-0.5,0.5c-0.2,0.2-0.4,0.4-0.6,0.6l-0.5,0.5l-0.6,0.6
		l-0.5,0.5c-0.2,0.2-0.4,0.4-0.6,0.6l-0.4,0.5l-0.6,0.7l-0.4,0.4l-0.6,0.8l-0.3,0.4c-0.3,0.4-0.6,0.8-0.9,1.2l0,0
		c-0.3,0.4-0.6,0.8-0.9,1.1c-0.1,0.1-0.2,0.3-0.3,0.4l-0.6,0.8l-0.3,0.5l-0.5,0.7l-0.4,0.5l-0.5,0.7l-0.4,0.6l-0.4,0.7
		c-0.1,0.2-0.2,0.4-0.3,0.6l-0.4,0.7l-0.3,0.6c-0.1,0.2-0.3,0.5-0.4,0.7l-0.3,0.6l-0.4,0.7c-0.1,0.2-0.2,0.4-0.3,0.6
		s-0.3,0.5-0.4,0.7l-0.3,0.6l-0.3,0.7l-0.3,0.6c-0.1,0.3-0.2,0.5-0.3,0.8s-0.2,0.4-0.3,0.6c-0.1,0.2-0.2,0.5-0.3,0.8l-0.3,0.6
		c-0.1,0.3-0.2,0.5-0.3,0.8l-0.2,0.6c-0.1,0.3-0.2,0.5-0.3,0.8c-0.1,0.3-0.2,0.4-0.2,0.6l-0.3,0.8c0,0.2-0.1,0.4-0.2,0.6
		c-0.1,0.2-0.2,0.6-0.3,0.9l-0.2,0.6c-0.1,0.3-0.2,0.7-0.3,1c0,0.2-0.1,0.3-0.1,0.5c-0.1,0.5-0.3,1-0.4,1.5c0,0.1,0,0.2,0,0.3
		c-0.1,0.4-0.2,0.8-0.3,1.3c0,0.2-0.1,0.4-0.1,0.5c0,0.2-0.1,0.7-0.2,1l-0.1,0.6c0,0.3-0.1,0.6-0.2,0.9c0,0.3,0,0.4-0.1,0.7
		c-0.1,0.2-0.1,0.6-0.1,0.9c0,0.3,0,0.5-0.1,0.7s-0.1,0.6-0.1,0.9l-0.1,0.7c0,0.3,0,0.6-0.1,0.9c-0.1,0.3,0,0.5,0,0.7
		c0,0.2,0,0.6,0,0.9s0,0.5,0,0.7c0,0.2,0,0.3,0,0.4l0,0c0,0.2,0,0.4,0,0.6c0-0.2,0-0.3,0-0.5v-0.1l0,0l-0.1,24v6.2h23.5
		c1.3,0.1,2.6,0.2,4.1,0.2c1.4,0,2.9,0,4.3-0.1c33.5-2.2,59.6-30.1,59.6-63.7V4H222.1z M137,66.4c0,0.5,0,1,0,1.5
		C137,67.4,137,66.9,137,66.4z"/>
	<circle class="st1" cx="121.8" cy="98.7" r="8.2"/>
	<path class="st1" d="M70.8,198.3V239h-5.9v-20.7H43.2V239h-5.9v-40.8h5.9v18.6h21.7v-18.6H70.8z"/>
	<path class="st1" d="M83.8,234.7c1.2-1.2,3.2-1.2,4.4,0c0.6,0.5,0.9,1.3,0.9,2.1c0,0.8-0.3,1.6-0.9,2.2c-1.2,1.2-3.2,1.2-4.4,0
		c-0.6-0.6-0.9-1.4-0.9-2.2C82.9,236.1,83.3,235.3,83.8,234.7z"/>
	<path class="st1" d="M135.2,198.3V239h-5.9v-20.7h-21.7V239h-5.8v-40.8h5.9v18.6h21.7v-18.6H135.2z"/>
	<path class="st1" d="M168.7,224.1h-15L148,239h-2.2l16.9-40.8h1.2l17.3,40.7h-6.4l-3.1-7.5L168.7,224.1z M168.2,222.7l-7.2-17.1
		l-6.9,17.1H168.2z"/>
	<path class="st1" d="M205.6,198.3v26.1c0,2.1-0.1,4.2-0.4,6.3c-0.3,1.5-0.9,2.9-1.9,4.1c-1,1.4-2.3,2.5-3.9,3.2
		c-1.8,0.8-3.8,1.1-5.7,1.1c-1.5,0.1-3-0.3-4.2-1.1l1.2-0.8c0.9,0.5,1.9,0.8,2.9,0.9c1.7,0,3.3-0.6,4.6-1.8c1.2-1,2-2.5,2.3-4.1
		c0.4-2.6,0.6-5.2,0.5-7.7v-26.1H205.6z"/>
</g>
</svg>
