<?xml version="1.0" encoding="utf-8"?>
<!-- Generator: Adobe Illustrator 24.0.3, SVG Export Plug-In . SVG Version: 6.00 Build 0)  -->
<svg version="1.1" id="Layer_1" xmlns="http://www.w3.org/2000/svg" xmlns:xlink="http://www.w3.org/1999/xlink" x="0px" y="0px"
	 viewBox="0 0 150 150" style="enable-background:new 0 0 150 150;" xml:space="preserve">
<style type="text/css">
	.st0{fill:#F7F7F7;}
	.st1{fill:none;stroke:#F84C5F;stroke-width:3;stroke-linecap:round;stroke-miterlimit:10;}
	.st2{fill:#15212E;}
	.st3{font-family:'Gotham-Light';}
	.st4{font-size:25px;}
	.st5{letter-spacing:1;}
</style>
<g>
	<g>
		<path class="st0" d="M75,17c31.98,0,58,26.02,58,58s-26.02,58-58,58s-58-26.02-58-58S43.02,17,75,17 M75,9C38.55,9,9,38.55,9,75
			s29.55,66,66,66s66-29.55,66-66S111.45,9,75,9L75,9z"/>
	</g>
	<path class="st1" d="M103.03,20.97c19.25,10.18,32.36,30.41,32.36,53.7c0,33.53-27.19,60.72-60.72,60.72S13.95,108.2,13.95,74.67
		s27.19-60.72,60.72-60.72"/>
</g>
<text transform="matrix(1 0 0 1 59.2126 82.8121)" class="st2 st3 st4 st5">Ps</text>
</svg>
