<?xml version="1.0" encoding="utf-8"?>
<!-- Generator: Adobe Illustrator 24.0.3, SVG Export Plug-In . SVG Version: 6.00 Build 0)  -->
<svg version="1.1" id="Layer_1" xmlns="http://www.w3.org/2000/svg" xmlns:xlink="http://www.w3.org/1999/xlink" x="0px" y="0px"
	 viewBox="0 0 150 150" style="enable-background:new 0 0 150 150;" xml:space="preserve">
<style type="text/css">
	.st0{fill:#F7F7F7;}
	.st1{fill:none;stroke:#F84C5F;stroke-width:3;stroke-linecap:round;stroke-miterlimit:10;}
	.st2{fill:#15212E;}
	.st3{font-family:'Gotham-Light';}
	.st4{font-size:25px;}
	.st5{letter-spacing:1;}
</style>
<g>
	<path class="st0" d="M75,15c33.08,0,60,26.92,60,60s-26.92,60-60,60s-60-26.92-60-60S41.92,15,75,15 M75,7C37.44,7,7,37.44,7,75
		s30.44,68,68,68s68-30.44,68-68S112.56,7,75,7L75,7z"/>
</g>
<path class="st1" d="M132.35,51.39c3,7.28,4.65,15.25,4.65,23.61c0,34.24-27.76,62-62,62s-62-27.76-62-62s27.76-62,62-62"/>
<text transform="matrix(1 0 0 1 29.7249 82.8126)" class="st2 st3 st4 st5">Sketch</text>
</svg>
