<?xml version="1.0" encoding="utf-8"?>
<!-- Generator: Adobe Illustrator 24.0.3, SVG Export Plug-In . SVG Version: 6.00 Build 0)  -->
<svg version="1.1" id="Layer_1" xmlns="http://www.w3.org/2000/svg" xmlns:xlink="http://www.w3.org/1999/xlink" x="0px" y="0px"
	 viewBox="0 0 150 20" style="enable-background:new 0 0 150 20;" xml:space="preserve">
<style type="text/css">
	.st0{fill:#E3E3E3;}
	.st1{fill:#F84C5F;}
	.st2{enable-background:new    ;}
</style>
<g>
	<g id="Group_249_2_" transform="translate(-915 -2423)">
		<path id="Rectangle_106_2_" class="st0" d="M917.9,2437.5h144.2c0.9,0,1.7,0.7,1.7,1.7l0,0c0,0.9-0.7,1.7-1.7,1.7H917.9
			c-0.9,0-1.7-0.7-1.7-1.7l0,0C916.2,2438.3,917,2437.5,917.9,2437.5z"/>
		<path id="Rectangle_105_2_" class="st1" d="M917.9,2437.5h131.3c0.9,0,1.7,0.7,1.7,1.7l0,0c0,0.9-0.7,1.7-1.7,1.7H917.9
			c-0.9,0-1.7-0.7-1.7-1.7l0,0C916.2,2438.3,917,2437.5,917.9,2437.5z"/>
	</g>
	<g class="st2">
		<path d="M1.7,2.3h0.5l1.9,5.4l1.8-5.4h0.3L8,7.7l1.9-5.4h0.5L8.2,8.4H7.8L6,3.1L4.2,8.4H3.9L1.7,2.3z"/>
		<path d="M10.7,6.1L10.7,6.1c0-1.3,0.9-2.3,2.1-2.3s2,1,2,2.3c0,0.1,0,0.1,0,0.2h-3.7C11.2,7.4,12,8,12.8,8c0.7,0,1.2-0.3,1.5-0.7
			l0.3,0.3c-0.5,0.5-1,0.8-1.8,0.8C11.7,8.4,10.7,7.5,10.7,6.1z M14.4,5.9c-0.1-0.9-0.6-1.7-1.6-1.7c-0.9,0-1.6,0.7-1.6,1.7H14.4z"
			/>
		<path d="M16.5,7.4v1h-0.4V2.1h0.4v2.8c0.4-0.6,0.9-1.1,1.8-1.1c1.1,0,2.1,0.9,2.1,2.3l0,0c0,1.4-1.1,2.3-2.1,2.3
			C17.4,8.4,16.9,7.9,16.5,7.4z M20,6.1L20,6.1c0-1.2-0.8-1.9-1.7-1.9c-0.9,0-1.8,0.8-1.8,1.9l0,0c0,1.1,0.9,1.9,1.8,1.9
			C19.2,8,20,7.3,20,6.1z"/>
		<path d="M27.9,7.4c-0.6,0.7-1.2,1-2.1,1c-1.1,0-1.9-0.7-1.9-1.7l0,0c0-0.8,0.6-1.4,1.6-1.8C25,4.4,24.8,4,24.8,3.5l0,0
			c0-0.8,0.6-1.4,1.5-1.4c0.8,0,1.4,0.6,1.4,1.3l0,0c0,0.8-0.6,1.2-1.5,1.6l1.6,1.6c0.3-0.4,0.6-0.9,0.8-1.5L29,5.3
			c-0.3,0.6-0.6,1.2-0.9,1.6l1.1,1.2L29,8.4L27.9,7.4z M27.7,7.1l-1.8-1.9c-1,0.3-1.4,0.9-1.4,1.5l0,0c0,0.7,0.6,1.3,1.4,1.3
			C26.6,8,27.2,7.7,27.7,7.1z M27.4,3.5L27.4,3.5c0-0.6-0.4-1-1-1s-1,0.4-1,1l0,0c0,0.4,0.2,0.7,0.7,1.2C26.9,4.5,27.4,4.1,27.4,3.5
			z"/>
		<path d="M35.4,2.2h0.4l2.8,6.1h-0.5l-0.8-1.7h-3.6l-0.8,1.7h-0.5L35.4,2.2z M37.2,6.2l-1.6-3.5L34,6.2H37.2z"/>
		<path d="M39.9,3.9h0.4v1c0.4-0.6,0.9-1.1,1.8-1.1c1.1,0,2.1,0.9,2.1,2.3l0,0c0,1.4-1.1,2.3-2.1,2.3c-0.9,0-1.5-0.5-1.8-1.1v2.3
			h-0.4V3.9z M43.8,6.1L43.8,6.1c0-1.2-0.8-1.9-1.7-1.9S40.3,5,40.3,6.1l0,0c0,1.1,0.9,1.9,1.8,1.9C43,8,43.8,7.3,43.8,6.1z"/>
		<path d="M45.6,3.9H46v1c0.4-0.6,0.9-1.1,1.8-1.1c1.1,0,2.1,0.9,2.1,2.3l0,0c0,1.4-1.1,2.3-2.1,2.3c-0.9,0-1.5-0.5-1.8-1.1v2.3
			h-0.4V3.9z M49.5,6.1L49.5,6.1c0-1.2-0.8-1.9-1.7-1.9S46,5,46,6.1l0,0C46,7.2,46.9,8,47.8,8C48.8,8,49.5,7.3,49.5,6.1z"/>
	</g>
</g>
</svg>
